<svg width="28" height="20" viewBox="0 0 32 23" fill="none" xmlns="http://www.w3.org/2000/svg">
<path fill-rule="evenodd" clip-rule="evenodd" d="M18.7226 1.58325C18.7226 1.25173 18.8543 0.93379 19.0887 0.699369C19.3231 0.464949 19.641 0.333252 19.9726 0.333252H29.9726C30.3041 0.333252 30.622 0.464949 30.8564 0.699369C31.0909 0.93379 31.2226 1.25173 31.2226 1.58325V11.5833C31.2226 11.9148 31.0909 12.2327 30.8564 12.4671C30.622 12.7016 30.3041 12.8333 29.9726 12.8333C29.641 12.8333 29.3231 12.7016 29.0887 12.4671C28.8543 12.2327 28.7226 11.9148 28.7226 11.5833V5.08325L19.6901 16.1258C19.5795 16.2607 19.4419 16.371 19.2861 16.4496C19.1303 16.5282 18.9598 16.5733 18.7856 16.582C18.6113 16.5907 18.4372 16.5629 18.2743 16.5002C18.1115 16.4376 17.9635 16.3415 17.8401 16.2183L11.3726 9.75075L2.23256 22.3183C2.03262 22.5725 1.74191 22.7393 1.42152 22.7837C1.10113 22.8281 0.776018 22.7466 0.514492 22.5562C0.252966 22.3659 0.0753931 22.0816 0.0190892 21.7631C-0.0372148 21.4446 0.032134 21.1167 0.212563 20.8483L10.2126 7.09825C10.3187 6.95204 10.4553 6.83057 10.6129 6.74222C10.7705 6.65387 10.9454 6.60074 11.1255 6.58648C11.3056 6.57222 11.4867 6.59718 11.6562 6.65963C11.8258 6.72209 11.9797 6.82056 12.1076 6.94825L18.6301 13.4732L27.3351 2.83325H19.9726C19.641 2.83325 19.3231 2.70156 19.0887 2.46713C18.8543 2.23271 18.7226 1.91477 18.7226 1.58325Z" fill="#7DF77B"/>
</svg>
